<mxfile host="app.diagrams.net" modified="2020-03-23T07:46:37.383Z" agent="Mozilla/5.0 (Macintosh; Intel Mac OS X 10_14_4) AppleWebKit/537.36 (KHTML, like Gecko) Chrome/80.0.3987.132 Safari/537.36" etag="cCy2-HyZcKMZfey7bPUy" version="12.8.8" type="github">
  <diagram id="8v0LD2bgcwBOzAS1qzz7" name="Page-1">
    <mxGraphModel dx="946" dy="522" grid="1" gridSize="10" guides="1" tooltips="1" connect="1" arrows="1" fold="1" page="1" pageScale="1" pageWidth="827" pageHeight="1169" math="0" shadow="0">
      <root>
        <mxCell id="0" />
        <mxCell id="1" parent="0" />
        <mxCell id="jj_E-03qJ9KA_C6J2k_F-1" value="" style="rounded=0;whiteSpace=wrap;html=1;dashed=1;" vertex="1" parent="1">
          <mxGeometry x="40" y="440" width="760" height="280" as="geometry" />
        </mxCell>
        <mxCell id="jj_E-03qJ9KA_C6J2k_F-2" value="" style="rounded=0;whiteSpace=wrap;html=1;" vertex="1" parent="1">
          <mxGeometry x="60" y="460" width="340" height="240" as="geometry" />
        </mxCell>
        <mxCell id="jj_E-03qJ9KA_C6J2k_F-3" value="" style="rounded=0;whiteSpace=wrap;html=1;" vertex="1" parent="1">
          <mxGeometry x="440" y="460" width="340" height="240" as="geometry" />
        </mxCell>
        <mxCell id="jj_E-03qJ9KA_C6J2k_F-4" value="变电站1" style="text;html=1;strokeColor=none;fillColor=none;align=center;verticalAlign=middle;whiteSpace=wrap;rounded=0;" vertex="1" parent="1">
          <mxGeometry x="60" y="460" width="50" height="20" as="geometry" />
        </mxCell>
        <mxCell id="jj_E-03qJ9KA_C6J2k_F-5" value="变电站2" style="text;html=1;strokeColor=none;fillColor=none;align=center;verticalAlign=middle;whiteSpace=wrap;rounded=0;" vertex="1" parent="1">
          <mxGeometry x="440" y="460" width="50" height="20" as="geometry" />
        </mxCell>
      </root>
    </mxGraphModel>
  </diagram>
</mxfile>
